<svg width="154" height="24" viewBox="0 0 154 24" fill="none" xmlns="http://www.w3.org/2000/svg">
<g clip-path="url(#clip0_33_294)">
<path fill-rule="evenodd" clip-rule="evenodd" d="M13.1583 11.2087C13.4527 11.1454 13.5621 11.1863 13.586 11.1978C13.5959 11.2183 13.6182 11.2857 13.6027 11.4445C13.5803 11.6752 13.4834 12.0015 13.2857 12.41C12.8933 13.221 12.1695 14.221 11.1953 15.1953C10.221 16.1695 9.22107 16.8933 8.41003 17.2857C8.00153 17.4834 7.67517 17.5802 7.44453 17.6027C7.2857 17.6182 7.21837 17.5958 7.1978 17.586C7.1863 17.5621 7.14543 17.4527 7.20873 17.1583C7.2854 16.8018 7.48963 16.3219 7.8346 15.7606C8.2525 15.0806 8.8499 14.3248 9.58737 13.5873C10.3248 12.8499 11.0806 12.2525 11.7606 11.8346C12.3219 11.4896 12.8018 11.2854 13.1583 11.2087ZM1.47063 13.7468L6.25323 18.5294C6.6271 18.9032 7.13423 18.9726 7.5739 18.9298C8.0195 18.8863 8.50493 18.721 8.99077 18.486C9.9684 18.0129 11.0873 17.1889 12.1381 16.1381C13.1889 15.0873 14.0129 13.9684 14.486 12.9908C14.721 12.5049 14.8863 12.0195 14.9298 11.5739C14.9726 11.1342 14.9032 10.6271 14.5294 10.2532L9.74677 5.47062C9.28423 5.00809 8.6255 5.00858 8.09537 5.12259C7.53603 5.24288 6.91113 5.52806 6.27987 5.916C5.49927 6.39572 4.6627 7.06118 3.86193 7.86193C3.06118 8.66267 2.39572 9.49927 1.91601 10.2799C1.52807 10.9111 1.24288 11.536 1.12259 12.0954C1.00858 12.6255 1.0081 13.2842 1.47063 13.7468Z" fill="white"/>
</g>
<path d="M36.104 18.5V8.06H32.432V5.9H42.152V8.06H38.48V18.5H36.104ZM46.2225 18.752C45.3345 18.752 44.5485 18.566 43.8645 18.194C43.1925 17.81 42.6645 17.276 42.2805 16.592C41.9085 15.896 41.7225 15.08 41.7225 14.144V13.928C41.7225 12.992 41.9085 12.182 42.2805 11.498C42.6525 10.802 43.1745 10.268 43.8465 9.896C44.5185 9.512 45.2985 9.32 46.1865 9.32C47.0625 9.32 47.8245 9.518 48.4725 9.914C49.1205 10.298 49.6245 10.838 49.9845 11.534C50.3445 12.218 50.5245 13.016 50.5245 13.928V14.702H44.0265C44.0505 15.314 44.2785 15.812 44.7105 16.196C45.1425 16.58 45.6705 16.772 46.2945 16.772C46.9305 16.772 47.3985 16.634 47.6985 16.358C47.9985 16.082 48.2265 15.776 48.3825 15.44L50.2365 16.412C50.0685 16.724 49.8225 17.066 49.4985 17.438C49.1865 17.798 48.7665 18.11 48.2385 18.374C47.7105 18.626 47.0385 18.752 46.2225 18.752ZM44.0445 13.01H48.2205C48.1725 12.494 47.9625 12.08 47.5905 11.768C47.2305 11.456 46.7565 11.3 46.1685 11.3C45.5565 11.3 45.0705 11.456 44.7105 11.768C44.3505 12.08 44.1285 12.494 44.0445 13.01ZM56.7372 18.752C55.8732 18.752 55.0872 18.572 54.3792 18.212C53.6832 17.852 53.1312 17.33 52.7232 16.646C52.3152 15.962 52.1112 15.134 52.1112 14.162V13.91C52.1112 12.938 52.3152 12.11 52.7232 11.426C53.1312 10.742 53.6832 10.22 54.3792 9.86C55.0872 9.5 55.8732 9.32 56.7372 9.32C57.5892 9.32 58.3212 9.47 58.9332 9.77C59.5452 10.07 60.0372 10.484 60.4092 11.012C60.7932 11.528 61.0452 12.116 61.1652 12.776L58.9692 13.244C58.9212 12.884 58.8132 12.56 58.6452 12.272C58.4772 11.984 58.2372 11.756 57.9252 11.588C57.6252 11.42 57.2472 11.336 56.7912 11.336C56.3352 11.336 55.9212 11.438 55.5492 11.642C55.1892 11.834 54.9012 12.128 54.6852 12.524C54.4812 12.908 54.3792 13.382 54.3792 13.946V14.126C54.3792 14.69 54.4812 15.17 54.6852 15.566C54.9012 15.95 55.1892 16.244 55.5492 16.448C55.9212 16.64 56.3352 16.736 56.7912 16.736C57.4752 16.736 57.9912 16.562 58.3392 16.214C58.6992 15.854 58.9272 15.386 59.0232 14.81L61.2192 15.332C61.0632 15.968 60.7932 16.55 60.4092 17.078C60.0372 17.594 59.5452 18.002 58.9332 18.302C58.3212 18.602 57.5892 18.752 56.7372 18.752ZM63.0901 18.5V5.9H65.3581V10.67H65.6821C65.7781 10.478 65.9281 10.286 66.1321 10.094C66.3361 9.902 66.6061 9.746 66.9421 9.626C67.2901 9.494 67.7281 9.428 68.2561 9.428C68.9521 9.428 69.5581 9.59 70.0741 9.914C70.6021 10.226 71.0101 10.664 71.2981 11.228C71.5861 11.78 71.7301 12.428 71.7301 13.172V18.5H69.4621V13.352C69.4621 12.68 69.2941 12.176 68.9581 11.84C68.6341 11.504 68.1661 11.336 67.5541 11.336C66.8581 11.336 66.3181 11.57 65.9341 12.038C65.5501 12.494 65.3581 13.136 65.3581 13.964V18.5H63.0901ZM78.6802 18.5V5.9H83.8642C84.6562 5.9 85.3522 6.062 85.9522 6.386C86.5642 6.698 87.0382 7.142 87.3742 7.718C87.7222 8.294 87.8962 8.978 87.8962 9.77V10.022C87.8962 10.802 87.7162 11.486 87.3562 12.074C87.0082 12.65 86.5282 13.1 85.9162 13.424C85.3162 13.736 84.6322 13.892 83.8642 13.892H81.0562V18.5H78.6802ZM81.0562 11.732H83.6302C84.1942 11.732 84.6502 11.576 84.9982 11.264C85.3462 10.952 85.5202 10.526 85.5202 9.986V9.806C85.5202 9.266 85.3462 8.84 84.9982 8.528C84.6502 8.216 84.1942 8.06 83.6302 8.06H81.0562V11.732ZM93.6525 18.752C92.7645 18.752 91.9665 18.572 91.2585 18.212C90.5505 17.852 89.9925 17.33 89.5845 16.646C89.1765 15.962 88.9725 15.14 88.9725 14.18V13.892C88.9725 12.932 89.1765 12.11 89.5845 11.426C89.9925 10.742 90.5505 10.22 91.2585 9.86C91.9665 9.5 92.7645 9.32 93.6525 9.32C94.5405 9.32 95.3385 9.5 96.0465 9.86C96.7545 10.22 97.3125 10.742 97.7205 11.426C98.1285 12.11 98.3325 12.932 98.3325 13.892V14.18C98.3325 15.14 98.1285 15.962 97.7205 16.646C97.3125 17.33 96.7545 17.852 96.0465 18.212C95.3385 18.572 94.5405 18.752 93.6525 18.752ZM93.6525 16.736C94.3485 16.736 94.9245 16.514 95.3805 16.07C95.8365 15.614 96.0645 14.966 96.0645 14.126V13.946C96.0645 13.106 95.8365 12.464 95.3805 12.02C94.9365 11.564 94.3605 11.336 93.6525 11.336C92.9565 11.336 92.3805 11.564 91.9245 12.02C91.4685 12.464 91.2405 13.106 91.2405 13.946V14.126C91.2405 14.966 91.4685 15.614 91.9245 16.07C92.3805 16.514 92.9565 16.736 93.6525 16.736ZM100.426 18.5V9.572H102.658V10.58H102.982C103.114 10.22 103.33 9.956 103.63 9.788C103.942 9.62 104.302 9.536 104.71 9.536H105.79V11.552H104.674C104.098 11.552 103.624 11.708 103.252 12.02C102.88 12.32 102.694 12.788 102.694 13.424V18.5H100.426ZM110.983 18.5C110.395 18.5 109.915 18.32 109.543 17.96C109.183 17.588 109.003 17.096 109.003 16.484V11.444H106.771V9.572H109.003V6.8H111.271V9.572H113.719V11.444H111.271V16.088C111.271 16.448 111.439 16.628 111.775 16.628H113.503V18.5H110.983ZM116.808 18.5V11.444H114.54V9.572H116.808V7.916C116.808 7.304 116.988 6.818 117.348 6.458C117.72 6.086 118.2 5.9 118.788 5.9H121.128V7.772H119.58C119.244 7.772 119.076 7.952 119.076 8.312V9.572H121.416V11.444H119.076V18.5H116.808ZM127.121 18.752C126.233 18.752 125.435 18.572 124.727 18.212C124.019 17.852 123.461 17.33 123.053 16.646C122.645 15.962 122.441 15.14 122.441 14.18V13.892C122.441 12.932 122.645 12.11 123.053 11.426C123.461 10.742 124.019 10.22 124.727 9.86C125.435 9.5 126.233 9.32 127.121 9.32C128.009 9.32 128.807 9.5 129.515 9.86C130.223 10.22 130.781 10.742 131.189 11.426C131.597 12.11 131.801 12.932 131.801 13.892V14.18C131.801 15.14 131.597 15.962 131.189 16.646C130.781 17.33 130.223 17.852 129.515 18.212C128.807 18.572 128.009 18.752 127.121 18.752ZM127.121 16.736C127.817 16.736 128.393 16.514 128.849 16.07C129.305 15.614 129.533 14.966 129.533 14.126V13.946C129.533 13.106 129.305 12.464 128.849 12.02C128.405 11.564 127.829 11.336 127.121 11.336C126.425 11.336 125.849 11.564 125.393 12.02C124.937 12.464 124.709 13.106 124.709 13.946V14.126C124.709 14.966 124.937 15.614 125.393 16.07C125.849 16.514 126.425 16.736 127.121 16.736ZM133.895 18.5V5.9H136.163V18.5H133.895ZM138.676 18.5V9.572H140.944V18.5H138.676ZM139.81 8.528C139.402 8.528 139.054 8.396 138.766 8.132C138.49 7.868 138.352 7.52 138.352 7.088C138.352 6.656 138.49 6.308 138.766 6.044C139.054 5.78 139.402 5.648 139.81 5.648C140.23 5.648 140.578 5.78 140.854 6.044C141.13 6.308 141.268 6.656 141.268 7.088C141.268 7.52 141.13 7.868 140.854 8.132C140.578 8.396 140.23 8.528 139.81 8.528ZM147.705 18.752C146.817 18.752 146.019 18.572 145.311 18.212C144.603 17.852 144.045 17.33 143.637 16.646C143.229 15.962 143.025 15.14 143.025 14.18V13.892C143.025 12.932 143.229 12.11 143.637 11.426C144.045 10.742 144.603 10.22 145.311 9.86C146.019 9.5 146.817 9.32 147.705 9.32C148.593 9.32 149.391 9.5 150.099 9.86C150.807 10.22 151.365 10.742 151.773 11.426C152.181 12.11 152.385 12.932 152.385 13.892V14.18C152.385 15.14 152.181 15.962 151.773 16.646C151.365 17.33 150.807 17.852 150.099 18.212C149.391 18.572 148.593 18.752 147.705 18.752ZM147.705 16.736C148.401 16.736 148.977 16.514 149.433 16.07C149.889 15.614 150.117 14.966 150.117 14.126V13.946C150.117 13.106 149.889 12.464 149.433 12.02C148.989 11.564 148.413 11.336 147.705 11.336C147.009 11.336 146.433 11.564 145.977 12.02C145.521 12.464 145.293 13.106 145.293 13.946V14.126C145.293 14.966 145.521 15.614 145.977 16.07C146.433 16.514 147.009 16.736 147.705 16.736Z" fill="white"/>
<defs>
<clipPath id="clip0_33_294">
<rect width="16" height="16" fill="white" transform="translate(0 4)"/>
</clipPath>
</defs>
</svg>
